<svg xmlns="http://www.w3.org/2000/svg" viewBox="0 0 16 16"><path d="M13.545 2.995c-1.02-.46-2.114-.8-3.257-.994a.05.05 0 0 0-.052.024 8.786 8.786 0 0 0-.406.82 12.377 12.377 0 0 0-3.658 0 8.24 8.24 0 0 0-.412-.82.052.052 0 0 0-.052-.024 13.314 13.314 0 0 0-3.257.994.046.046 0 0 0-.021.018C.356 6.063-.213 9.036.066 11.973a.06.06 0 0 0 .02.038 13.353 13.353 0 0 0 3.996 1.987.052.052 0 0 0 .056-.018c.308-.414.582-.85.818-1.308a.05.05 0 0 0-.028-.07 8.801 8.801 0 0 1-1.248-.585.05.05 0 0 1-.005-.084 6.78 6.78 0 0 0 .248-.191.05.05 0 0 1 .051-.007c2.619 1.176 5.454 1.176 8.041 0a.05.05 0 0 1 .053.006c.08.065.164.13.248.192a.05.05 0 0 1-.004.084 8.26 8.26 0 0 1-1.249.585.05.05 0 0 0-.027.07c.24.457.515.894.817 1.307a.051.051 0 0 0 .056.019 13.31 13.31 0 0 0 4.001-1.987.05.05 0 0 0 .021-.037c.334-3.396-.559-6.345-2.366-8.96a.04.04 0 0 0-.02-.02Zm-8.198 7.19c-.789 0-1.438-.712-1.438-1.587 0-.874.637-1.586 1.438-1.586.807 0 1.45.718 1.438 1.586 0 .875-.637 1.587-1.438 1.587Zm5.316 0c-.788 0-1.438-.712-1.438-1.587 0-.874.637-1.586 1.438-1.586.807 0 1.45.718 1.438 1.586 0 .875-.63 1.587-1.438 1.587Z" fill="#A1ABBD"></path></svg>